ISO-10303-21;
HEADER;
FILE_DESCRIPTION(('STEP AP214'),'1');
FILE_NAME('SampleFuss_V2.0.stp','2025-12-14T20:47:59',(' '),(' '),'Spatial InterOp 3D',' ',' ');
FILE_SCHEMA(('AUTOMOTIVE_DESIGN { 1 0 10303 214 1 1 1 1 }'));
ENDSEC;
DATA;
#1=MECHANICAL_DESIGN_GEOMETRIC_PRESENTATION_REPRESENTATION(' ',(#10,#11,#12,#13,#14,#15,#16,#17,#18,#19,#20,#21,#22,#23,#24,#25,#26,#27,#28,#29,#30,#31,#32),#6);
#2=PRODUCT_DEFINITION_CONTEXT('',#33,'design');
#3=APPLICATION_PROTOCOL_DEFINITION('INTERNATIONAL STANDARD','automotive_design',1994,#33);
#4=PRODUCT_CATEGORY_RELATIONSHIP('NONE','NONE',#34,#35);
#5=SHAPE_DEFINITION_REPRESENTATION(#36,#37);
#6= (GEOMETRIC_REPRESENTATION_CONTEXT(3)GLOBAL_UNCERTAINTY_ASSIGNED_CONTEXT((#40))GLOBAL_UNIT_ASSIGNED_CONTEXT((#42,#43,#44))REPRESENTATION_CONTEXT('NONE','WORKSPACE'));
#10=STYLED_ITEM('',(#46),#47);
#11=STYLED_ITEM('',(#48),#49);
#12=STYLED_ITEM('',(#50),#51);
#13=STYLED_ITEM('',(#52),#53);
#14=STYLED_ITEM('',(#54),#55);
#15=STYLED_ITEM('',(#56),#57);
#16=STYLED_ITEM('',(#58),#59);
#17=STYLED_ITEM('',(#60),#61);
#18=STYLED_ITEM('',(#62),#63);
#19=STYLED_ITEM('',(#64),#65);
#20=STYLED_ITEM('',(#66),#67);
#21=STYLED_ITEM('',(#68),#69);
#22=STYLED_ITEM('',(#70),#71);
#23=STYLED_ITEM('',(#72),#73);
#24=STYLED_ITEM('',(#74),#75);
#25=STYLED_ITEM('',(#76),#77);
#26=STYLED_ITEM('',(#78),#79);
#27=STYLED_ITEM('',(#80),#81);
#28=STYLED_ITEM('',(#82),#83);
#29=STYLED_ITEM('',(#84),#85);
#30=STYLED_ITEM('',(#86),#87);
#31=STYLED_ITEM('',(#88),#89);
#32=STYLED_ITEM('',(#90),#91);
#33=APPLICATION_CONTEXT(' ');
#34=PRODUCT_CATEGORY('part','NONE');
#35=PRODUCT_RELATED_PRODUCT_CATEGORY('detail',' ',(#92));
#36=PRODUCT_DEFINITION_SHAPE('NONE','NONE',#93);
#37=ADVANCED_BREP_SHAPE_REPRESENTATION('Volumenk\X2\00F6\X0\rper1',(#94,#95),#6);
#40=UNCERTAINTY_MEASURE_WITH_UNIT(LENGTH_MEASURE(1.0E-08),#42,'','');
#42= (CONVERSION_BASED_UNIT('METRE',#98)LENGTH_UNIT()NAMED_UNIT(#101));
#43= (NAMED_UNIT(#103)PLANE_ANGLE_UNIT()SI_UNIT($,.RADIAN.));
#44= (NAMED_UNIT(#103)SOLID_ANGLE_UNIT()SI_UNIT($,.STERADIAN.));
#46=PRESENTATION_STYLE_ASSIGNMENT((#109));
#47=ADVANCED_FACE('0:149',(#110,#111),#112,.T.);
#48=PRESENTATION_STYLE_ASSIGNMENT((#113));
#49=ADVANCED_FACE('0:36',(#114,#115),#116,.T.);
#50=PRESENTATION_STYLE_ASSIGNMENT((#117));
#51=ADVANCED_FACE('0:39',(#118,#119),#120,.F.);
#52=PRESENTATION_STYLE_ASSIGNMENT((#121));
#53=ADVANCED_FACE('0:42',(#122,#123),#124,.T.);
#54=PRESENTATION_STYLE_ASSIGNMENT((#125));
#55=ADVANCED_FACE('0:48',(#126,#127),#128,.T.);
#56=PRESENTATION_STYLE_ASSIGNMENT((#129));
#57=ADVANCED_FACE('0:54',(#130),#131,.F.);
#58=PRESENTATION_STYLE_ASSIGNMENT((#132));
#59=ADVANCED_FACE('0:45',(#133,#134),#135,.F.);
#60=PRESENTATION_STYLE_ASSIGNMENT((#136));
#61=ADVANCED_FACE('0:51',(#137,#138),#139,.F.);
#62=PRESENTATION_STYLE_ASSIGNMENT((#140));
#63=ADVANCED_FACE('0:33',(#141),#142,.T.);
#64=PRESENTATION_STYLE_ASSIGNMENT((#143));
#65=ADVANCED_FACE('0:27',(#144,#145),#146,.T.);
#66=PRESENTATION_STYLE_ASSIGNMENT((#147));
#67=ADVANCED_FACE('0:57',(#148),#149,.T.);
#68=PRESENTATION_STYLE_ASSIGNMENT((#150));
#69=ADVANCED_FACE('0:60',(#151,#152),#153,.F.);
#70=PRESENTATION_STYLE_ASSIGNMENT((#154));
#71=ADVANCED_FACE('0:63',(#155),#156,.F.);
#72=PRESENTATION_STYLE_ASSIGNMENT((#157));
#73=EDGE_CURVE('0:72',#158,#158,#159,.T.);
#74=PRESENTATION_STYLE_ASSIGNMENT((#160));
#75=EDGE_CURVE('0:69',#161,#161,#162,.T.);
#76=PRESENTATION_STYLE_ASSIGNMENT((#163));
#77=EDGE_CURVE('0:75',#164,#164,#165,.T.);
#78=PRESENTATION_STYLE_ASSIGNMENT((#166));
#79=EDGE_CURVE('0:78',#167,#167,#168,.T.);
#80=PRESENTATION_STYLE_ASSIGNMENT((#169));
#81=EDGE_CURVE('0:84',#170,#170,#171,.T.);
#82=PRESENTATION_STYLE_ASSIGNMENT((#172));
#83=EDGE_CURVE('0:81',#173,#173,#174,.T.);
#84=PRESENTATION_STYLE_ASSIGNMENT((#175));
#85=EDGE_CURVE('0:90',#176,#176,#177,.T.);
#86=PRESENTATION_STYLE_ASSIGNMENT((#178));
#87=EDGE_CURVE('0:87',#179,#179,#180,.T.);
#88=PRESENTATION_STYLE_ASSIGNMENT((#181));
#89=EDGE_CURVE('0:66',#182,#182,#183,.T.);
#90=PRESENTATION_STYLE_ASSIGNMENT((#184));
#91=EDGE_CURVE('0:93',#185,#185,#186,.T.);
#92=PRODUCT('Volumenk\X2\00F6\X0\rper1','Volumenk\X2\00F6\X0\rper1','PART-Volumenk\X2\00F6\X0\rper1-DESC',(#187));
#93=PRODUCT_DEFINITION('','NONE',#188,#2);
#94=BREP_WITH_VOIDS('Volumenk\X2\00F6\X0\rper1',#189,(#190));
#95=AXIS2_PLACEMENT_3D('',#191,#192,#193);
#98=LENGTH_MEASURE_WITH_UNIT(LENGTH_MEASURE(1.0),#194);
#101=DIMENSIONAL_EXPONENTS(1.0,0.0,0.0,0.0,0.0,0.0,0.0);
#103=DIMENSIONAL_EXPONENTS(0.0,0.0,0.0,0.0,0.0,0.0,0.0);
#109=SURFACE_STYLE_USAGE(.BOTH.,#195);
#110=FACE_OUTER_BOUND('',#196,.T.);
#111=FACE_OUTER_BOUND('',#197,.T.);
#112=CYLINDRICAL_SURFACE('',#198,0.0139);
#113=SURFACE_STYLE_USAGE(.BOTH.,#199);
#114=FACE_BOUND('',#200,.T.);
#115=FACE_OUTER_BOUND('',#201,.T.);
#116=CONICAL_SURFACE('',#202,0.0136,0.785398163397442);
#117=SURFACE_STYLE_USAGE(.BOTH.,#203);
#118=FACE_OUTER_BOUND('',#204,.T.);
#119=FACE_BOUND('',#205,.T.);
#120=PLANE('',#206);
#121=SURFACE_STYLE_USAGE(.BOTH.,#207);
#122=FACE_OUTER_BOUND('',#208,.T.);
#123=FACE_BOUND('',#209,.T.);
#124=CONICAL_SURFACE('',#210,0.00552500000000002,0.785398163397451);
#125=SURFACE_STYLE_USAGE(.BOTH.,#211);
#126=FACE_OUTER_BOUND('',#212,.T.);
#127=FACE_OUTER_BOUND('',#213,.T.);
#128=CYLINDRICAL_SURFACE('',#214,0.00602500000000002);
#129=SURFACE_STYLE_USAGE(.BOTH.,#215);
#130=FACE_OUTER_BOUND('',#216,.T.);
#131=PLANE('',#217);
#132=SURFACE_STYLE_USAGE(.BOTH.,#218);
#133=FACE_OUTER_BOUND('',#219,.T.);
#134=FACE_BOUND('',#220,.T.);
#135=PLANE('',#221);
#136=SURFACE_STYLE_USAGE(.BOTH.,#222);
#137=FACE_OUTER_BOUND('',#223,.T.);
#138=FACE_OUTER_BOUND('',#224,.T.);
#139=CYLINDRICAL_SURFACE('',#225,0.00402500000000002);
#140=SURFACE_STYLE_USAGE(.BOTH.,#226);
#141=FACE_OUTER_BOUND('',#227,.T.);
#142=PLANE('',#228);
#143=SURFACE_STYLE_USAGE(.BOTH.,#229);
#144=FACE_OUTER_BOUND('',#230,.T.);
#145=FACE_BOUND('',#231,.T.);
#146=CONICAL_SURFACE('',#232,0.0136,0.785398163397439);
#147=SURFACE_STYLE_USAGE(.BOTH.,#233);
#148=FACE_OUTER_BOUND('',#234,.T.);
#149=PLANE('',#235);
#150=SURFACE_STYLE_USAGE(.BOTH.,#236);
#151=FACE_OUTER_BOUND('',#237,.T.);
#152=FACE_OUTER_BOUND('',#238,.T.);
#153=CYLINDRICAL_SURFACE('',#239,0.0128);
#154=SURFACE_STYLE_USAGE(.BOTH.,#240);
#155=FACE_OUTER_BOUND('',#241,.T.);
#156=PLANE('',#242);
#157=CURVE_STYLE('',#243,POSITIVE_LENGTH_MEASURE(1.0E-06),#244);
#158=VERTEX_POINT('',#245);
#159=CIRCLE('',#246,0.0139);
#160=CURVE_STYLE('',#247,POSITIVE_LENGTH_MEASURE(1.0E-06),#248);
#161=VERTEX_POINT('',#249);
#162=CIRCLE('',#250,0.0139);
#163=CURVE_STYLE('',#251,POSITIVE_LENGTH_MEASURE(1.0E-06),#252);
#164=VERTEX_POINT('',#253);
#165=CIRCLE('',#254,0.0133);
#166=CURVE_STYLE('',#255,POSITIVE_LENGTH_MEASURE(1.0E-06),#256);
#167=VERTEX_POINT('',#257);
#168=CIRCLE('',#258,0.00602500000000002);
#169=CURVE_STYLE('',#259,POSITIVE_LENGTH_MEASURE(1.0E-06),#260);
#170=VERTEX_POINT('',#261);
#171=CIRCLE('',#262,0.00602500000000002);
#172=CURVE_STYLE('',#263,POSITIVE_LENGTH_MEASURE(1.0E-06),#264);
#173=VERTEX_POINT('',#265);
#174=CIRCLE('',#266,0.00502500000000002);
#175=CURVE_STYLE('',#267,POSITIVE_LENGTH_MEASURE(1.0E-06),#268);
#176=VERTEX_POINT('',#269);
#177=CIRCLE('',#270,0.00402500000000002);
#178=CURVE_STYLE('',#271,POSITIVE_LENGTH_MEASURE(1.0E-06),#272);
#179=VERTEX_POINT('',#273);
#180=CIRCLE('',#274,0.00402500000000002);
#181=CURVE_STYLE('',#275,POSITIVE_LENGTH_MEASURE(1.0E-06),#276);
#182=VERTEX_POINT('',#277);
#183=CIRCLE('',#278,0.0133);
#184=CURVE_STYLE('',#279,POSITIVE_LENGTH_MEASURE(1.0E-06),#280);
#185=VERTEX_POINT('',#281);
#186=CIRCLE('',#282,0.0128);
#187=PRODUCT_CONTEXT('',#33,'mechanical');
#188=PRODUCT_DEFINITION_FORMATION_WITH_SPECIFIED_SOURCE(' ','NONE',#92,.NOT_KNOWN.);
#189=CLOSED_SHELL('',(#47,#49,#51,#53,#55,#57,#59,#61,#63,#65));
#190=ORIENTED_CLOSED_SHELL('',*,#283,.T.);
#191=CARTESIAN_POINT('',(0.0,0.0,0.0));
#192=DIRECTION('',(0.0,0.0,1.0));
#193=DIRECTION('',(1.0,0.0,0.0));
#194= (NAMED_UNIT(#101)LENGTH_UNIT()SI_UNIT($,.METRE.));
#195=SURFACE_SIDE_STYLE('',(#285));
#196=EDGE_LOOP('',(#286));
#197=EDGE_LOOP('',(#287));
#198=AXIS2_PLACEMENT_3D('',#288,#289,#290);
#199=SURFACE_SIDE_STYLE('',(#291));
#200=EDGE_LOOP('',(#292));
#201=EDGE_LOOP('',(#293));
#202=AXIS2_PLACEMENT_3D('',#294,#295,#296);
#203=SURFACE_SIDE_STYLE('',(#297));
#204=EDGE_LOOP('',(#298));
#205=EDGE_LOOP('',(#299));
#206=AXIS2_PLACEMENT_3D('',#300,#301,#302);
#207=SURFACE_SIDE_STYLE('',(#303));
#208=EDGE_LOOP('',(#304));
#209=EDGE_LOOP('',(#305));
#210=AXIS2_PLACEMENT_3D('',#306,#307,#308);
#211=SURFACE_SIDE_STYLE('',(#309));
#212=EDGE_LOOP('',(#310));
#213=EDGE_LOOP('',(#311));
#214=AXIS2_PLACEMENT_3D('',#312,#313,#314);
#215=SURFACE_SIDE_STYLE('',(#315));
#216=EDGE_LOOP('',(#316));
#217=AXIS2_PLACEMENT_3D('',#317,#318,#319);
#218=SURFACE_SIDE_STYLE('',(#320));
#219=EDGE_LOOP('',(#321));
#220=EDGE_LOOP('',(#322));
#221=AXIS2_PLACEMENT_3D('',#323,#324,#325);
#222=SURFACE_SIDE_STYLE('',(#326));
#223=EDGE_LOOP('',(#327));
#224=EDGE_LOOP('',(#328));
#225=AXIS2_PLACEMENT_3D('',#329,#330,#331);
#226=SURFACE_SIDE_STYLE('',(#332));
#227=EDGE_LOOP('',(#333));
#228=AXIS2_PLACEMENT_3D('',#334,#335,#336);
#229=SURFACE_SIDE_STYLE('',(#337));
#230=EDGE_LOOP('',(#338));
#231=EDGE_LOOP('',(#339));
#232=AXIS2_PLACEMENT_3D('',#340,#341,#342);
#233=SURFACE_SIDE_STYLE('',(#343));
#234=EDGE_LOOP('',(#344));
#235=AXIS2_PLACEMENT_3D('',#345,#346,#347);
#236=SURFACE_SIDE_STYLE('',(#348));
#237=EDGE_LOOP('',(#349));
#238=EDGE_LOOP('',(#350));
#239=AXIS2_PLACEMENT_3D('',#351,#352,#353);
#240=SURFACE_SIDE_STYLE('',(#354));
#241=EDGE_LOOP('',(#355));
#242=AXIS2_PLACEMENT_3D('',#356,#357,#358);
#243=DRAUGHTING_PRE_DEFINED_CURVE_FONT('continuous');
#244=COLOUR_RGB('',0.701960802078247,0.701960802078247,0.701960802078247);
#245=CARTESIAN_POINT('',(0.0238,-0.0131521861300698,0.2544752308679));
#246=AXIS2_PLACEMENT_3D('',#359,#360,#361);
#247=DRAUGHTING_PRE_DEFINED_CURVE_FONT('continuous');
#248=COLOUR_RGB('',0.701960802078247,0.701960802078247,0.701960802078247);
#249=CARTESIAN_POINT('',(0.0238,-0.0117379725676967,0.255889444430273));
#250=AXIS2_PLACEMENT_3D('',#362,#363,#364);
#251=DRAUGHTING_PRE_DEFINED_CURVE_FONT('continuous');
#252=COLOUR_RGB('',0.701960802078247,0.701960802078247,0.701960802078247);
#253=CARTESIAN_POINT('',(0.0244,-0.0135764501987818,0.254050966799188));
#254=AXIS2_PLACEMENT_3D('',#365,#366,#367);
#255=DRAUGHTING_PRE_DEFINED_CURVE_FONT('continuous');
#256=COLOUR_RGB('',0.701960802078247,0.701960802078247,0.701960802078247);
#257=CARTESIAN_POINT('',(0.031675,-0.0135764501987817,0.254050966799188));
#258=AXIS2_PLACEMENT_3D('',#368,#369,#370);
#259=DRAUGHTING_PRE_DEFINED_CURVE_FONT('continuous');
#260=COLOUR_RGB('',0.701960802078247,0.701960802078247,0.701960802078247);
#261=CARTESIAN_POINT('',(0.031675,-0.0162634559672905,0.251363961030679));
#262=AXIS2_PLACEMENT_3D('',#371,#372,#373);
#263=DRAUGHTING_PRE_DEFINED_CURVE_FONT('continuous');
#264=COLOUR_RGB('',0.701960802078247,0.701960802078247,0.701960802078247);
#265=CARTESIAN_POINT('',(0.032675,-0.016970562748477,0.250656854249492));
#266=AXIS2_PLACEMENT_3D('',#374,#375,#376);
#267=DRAUGHTING_PRE_DEFINED_CURVE_FONT('continuous');
#268=COLOUR_RGB('',0.701960802078247,0.701960802078247,0.701960802078247);
#269=CARTESIAN_POINT('',(0.033675,-0.0135764501987817,0.254050966799188));
#270=AXIS2_PLACEMENT_3D('',#377,#378,#379);
#271=DRAUGHTING_PRE_DEFINED_CURVE_FONT('continuous');
#272=COLOUR_RGB('',0.701960802078247,0.701960802078247,0.701960802078247);
#273=CARTESIAN_POINT('',(0.033675,-0.0169705627484771,0.250656854249492));
#274=AXIS2_PLACEMENT_3D('',#380,#381,#382);
#275=DRAUGHTING_PRE_DEFINED_CURVE_FONT('continuous');
#276=COLOUR_RGB('',0.701960802078247,0.701960802078247,0.701960802078247);
#277=CARTESIAN_POINT('',(0.0244,-0.0113137084989848,0.256313708498985));
#278=AXIS2_PLACEMENT_3D('',#383,#384,#385);
#279=DRAUGHTING_PRE_DEFINED_CURVE_FONT('continuous');
#280=COLOUR_RGB('',0.701960802078247,0.701960802078247,0.701960802078247);
#281=CARTESIAN_POINT('',(0.0377,-0.0220617315730206,0.263667619023325));
#282=AXIS2_PLACEMENT_3D('',#386,#387,#388);
#283=CLOSED_SHELL('',(#67,#69,#71));
#285=SURFACE_STYLE_FILL_AREA(#389);
#286=ORIENTED_EDGE('',*,*,#73,.F.);
#287=ORIENTED_EDGE('',*,*,#75,.F.);
#288=CARTESIAN_POINT('',(0.0377,-0.0135764501987818,0.254050966799188));
#289=DIRECTION('',(0.0,0.707106781186548,0.707106781186548));
#290=DIRECTION('',(-1.0,0.0,0.0));
#291=SURFACE_STYLE_FILL_AREA(#390);
#292=ORIENTED_EDGE('',*,*,#77,.T.);
#293=ORIENTED_EDGE('',*,*,#73,.T.);
#294=CARTESIAN_POINT('',(0.0377,-0.0133643181644258,0.254263098833544));
#295=DIRECTION('',(0.0,0.707106781186548,0.707106781186548));
#296=DIRECTION('',(-1.0,0.0,0.0));
#297=SURFACE_STYLE_FILL_AREA(#391);
#298=ORIENTED_EDGE('',*,*,#77,.F.);
#299=ORIENTED_EDGE('',*,*,#79,.T.);
#300=CARTESIAN_POINT('',(0.0377,-0.0135764501987818,0.254050966799188));
#301=DIRECTION('',(0.0,0.707106781186547,0.707106781186548));
#302=DIRECTION('',(1.0,-0.0,0.0));
#303=SURFACE_STYLE_FILL_AREA(#392);
#304=ORIENTED_EDGE('',*,*,#81,.T.);
#305=ORIENTED_EDGE('',*,*,#83,.T.);
#306=CARTESIAN_POINT('',(0.0377,-0.0166170093578838,0.251010407640086));
#307=DIRECTION('',(0.0,0.707106781186546,0.707106781186549));
#308=DIRECTION('',(-1.0,0.0,0.0));
#309=SURFACE_STYLE_FILL_AREA(#393);
#310=ORIENTED_EDGE('',*,*,#79,.F.);
#311=ORIENTED_EDGE('',*,*,#81,.F.);
#312=CARTESIAN_POINT('',(0.0377,-0.0135764501987817,0.254050966799188));
#313=DIRECTION('',(-0.0,-0.707106781186544,-0.707106781186551));
#314=DIRECTION('',(-1.0,0.0,0.0));
#315=SURFACE_STYLE_FILL_AREA(#394);
#316=ORIENTED_EDGE('',*,*,#85,.T.);
#317=CARTESIAN_POINT('',(0.0377,-0.0135764501987818,0.254050966799188));
#318=DIRECTION('',(0.0,0.707106781186547,0.707106781186548));
#319=DIRECTION('',(1.0,-0.0,0.0));
#320=SURFACE_STYLE_FILL_AREA(#395);
#321=ORIENTED_EDGE('',*,*,#83,.F.);
#322=ORIENTED_EDGE('',*,*,#87,.T.);
#323=CARTESIAN_POINT('',(0.0377,-0.0169705627484771,0.250656854249492));
#324=DIRECTION('',(0.0,0.707106781186547,0.707106781186548));
#325=DIRECTION('',(1.0,-0.0,0.0));
#326=SURFACE_STYLE_FILL_AREA(#396);
#327=ORIENTED_EDGE('',*,*,#85,.F.);
#328=ORIENTED_EDGE('',*,*,#87,.F.);
#329=CARTESIAN_POINT('',(0.0377,-0.0135764501987817,0.254050966799188));
#330=DIRECTION('',(-0.0,-0.707106781186544,-0.707106781186551));
#331=DIRECTION('',(-1.0,0.0,0.0));
#332=SURFACE_STYLE_FILL_AREA(#397);
#333=ORIENTED_EDGE('',*,*,#89,.F.);
#334=CARTESIAN_POINT('',(0.0377,-0.0113137084989848,0.256313708498985));
#335=DIRECTION('',(0.0,0.707106781186547,0.707106781186548));
#336=DIRECTION('',(1.0,-0.0,0.0));
#337=SURFACE_STYLE_FILL_AREA(#398);
#338=ORIENTED_EDGE('',*,*,#75,.T.);
#339=ORIENTED_EDGE('',*,*,#89,.T.);
#340=CARTESIAN_POINT('',(0.0377,-0.0115258405333408,0.256101576464629));
#341=DIRECTION('',(-0.0,-0.707106781186546,-0.707106781186549));
#342=DIRECTION('',(-1.0,0.0,0.0));
#343=SURFACE_STYLE_FILL_AREA(#399);
#344=ORIENTED_EDGE('',*,*,#91,.T.);
#345=CARTESIAN_POINT('',(0.0377,-0.0130107647738325,0.254616652224137));
#346=DIRECTION('',(0.0,0.707106781186547,0.707106781186548));
#347=DIRECTION('',(1.0,-0.0,0.0));
#348=SURFACE_STYLE_FILL_AREA(#400);
#349=ORIENTED_EDGE('',*,*,#91,.F.);
#350=ORIENTED_EDGE('',*,*,#401,.F.);
#351=CARTESIAN_POINT('',(0.0377,-0.0135764501987818,0.254050966799188));
#352=DIRECTION('',(0.0,0.707106781186549,0.707106781186546));
#353=DIRECTION('',(-1.0,0.0,0.0));
#354=SURFACE_STYLE_FILL_AREA(#402);
#355=ORIENTED_EDGE('',*,*,#401,.T.);
#356=CARTESIAN_POINT('',(0.0377,-0.011879393923934,0.255748023074035));
#357=DIRECTION('',(0.0,0.707106781186547,0.707106781186548));
#358=DIRECTION('',(1.0,-0.0,0.0));
#359=CARTESIAN_POINT('',(0.0377,-0.0131521861300698,0.2544752308679));
#360=DIRECTION('',(-0.0,-0.707106781186547,-0.707106781186548));
#361=DIRECTION('',(-1.0,0.0,0.0));
#362=CARTESIAN_POINT('',(0.0377,-0.0117379725676967,0.255889444430273));
#363=DIRECTION('',(0.0,0.707106781186547,0.707106781186548));
#364=DIRECTION('',(-1.0,0.0,0.0));
#365=CARTESIAN_POINT('',(0.0377,-0.0135764501987818,0.254050966799188));
#366=DIRECTION('',(0.0,0.707106781186547,0.707106781186548));
#367=DIRECTION('',(-1.0,0.0,0.0));
#368=CARTESIAN_POINT('',(0.0377,-0.0135764501987817,0.254050966799188));
#369=DIRECTION('',(0.0,0.707106781186547,0.707106781186548));
#370=DIRECTION('',(-1.0,0.0,0.0));
#371=CARTESIAN_POINT('',(0.0377,-0.0162634559672905,0.251363961030679));
#372=DIRECTION('',(-0.0,-0.707106781186547,-0.707106781186548));
#373=DIRECTION('',(-1.0,0.0,0.0));
#374=CARTESIAN_POINT('',(0.0377,-0.016970562748477,0.250656854249492));
#375=DIRECTION('',(0.0,0.707106781186547,0.707106781186548));
#376=DIRECTION('',(-1.0,0.0,0.0));
#377=CARTESIAN_POINT('',(0.0377,-0.0135764501987817,0.254050966799188));
#378=DIRECTION('',(-0.0,-0.707106781186547,-0.707106781186548));
#379=DIRECTION('',(-1.0,0.0,0.0));
#380=CARTESIAN_POINT('',(0.0377,-0.0169705627484771,0.250656854249492));
#381=DIRECTION('',(0.0,0.707106781186547,0.707106781186548));
#382=DIRECTION('',(-1.0,0.0,0.0));
#383=CARTESIAN_POINT('',(0.0377,-0.0113137084989848,0.256313708498985));
#384=DIRECTION('',(-0.0,-0.707106781186547,-0.707106781186548));
#385=DIRECTION('',(-1.0,0.0,0.0));
#386=CARTESIAN_POINT('',(0.0377,-0.0130107647738327,0.254616652224137));
#387=DIRECTION('',(0.0,0.707106781186547,0.707106781186548));
#388=DIRECTION('',(0.0,-0.707106781186548,0.707106781186547));
#389=FILL_AREA_STYLE('',(#403));
#390=FILL_AREA_STYLE('',(#404));
#391=FILL_AREA_STYLE('',(#405));
#392=FILL_AREA_STYLE('',(#406));
#393=FILL_AREA_STYLE('',(#407));
#394=FILL_AREA_STYLE('',(#408));
#395=FILL_AREA_STYLE('',(#409));
#396=FILL_AREA_STYLE('',(#410));
#397=FILL_AREA_STYLE('',(#411));
#398=FILL_AREA_STYLE('',(#412));
#399=FILL_AREA_STYLE('',(#413));
#400=FILL_AREA_STYLE('',(#414));
#401=EDGE_CURVE('0:193',#415,#415,#416,.F.);
#402=FILL_AREA_STYLE('',(#417));
#403=FILL_AREA_STYLE_COLOUR('',#418);
#404=FILL_AREA_STYLE_COLOUR('',#419);
#405=FILL_AREA_STYLE_COLOUR('',#420);
#406=FILL_AREA_STYLE_COLOUR('',#421);
#407=FILL_AREA_STYLE_COLOUR('',#422);
#408=FILL_AREA_STYLE_COLOUR('',#423);
#409=FILL_AREA_STYLE_COLOUR('',#424);
#410=FILL_AREA_STYLE_COLOUR('',#425);
#411=FILL_AREA_STYLE_COLOUR('',#426);
#412=FILL_AREA_STYLE_COLOUR('',#427);
#413=FILL_AREA_STYLE_COLOUR('',#428);
#414=FILL_AREA_STYLE_COLOUR('',#429);
#415=VERTEX_POINT('',#430);
#416=CIRCLE('',#431,0.0128);
#417=FILL_AREA_STYLE_COLOUR('',#432);
#418=COLOUR_RGB('',0.584313750267029,0.584313750267029,0.584313750267029);
#419=COLOUR_RGB('',0.584313750267029,0.584313750267029,0.584313750267029);
#420=COLOUR_RGB('',0.584313750267029,0.584313750267029,0.584313750267029);
#421=COLOUR_RGB('',0.584313750267029,0.584313750267029,0.584313750267029);
#422=COLOUR_RGB('',0.584313750267029,0.584313750267029,0.584313750267029);
#423=COLOUR_RGB('',0.584313750267029,0.584313750267029,0.584313750267029);
#424=COLOUR_RGB('',0.584313750267029,0.584313750267029,0.584313750267029);
#425=COLOUR_RGB('',0.584313750267029,0.584313750267029,0.584313750267029);
#426=COLOUR_RGB('',0.584313750267029,0.584313750267029,0.584313750267029);
#427=COLOUR_RGB('',0.584313750267029,0.584313750267029,0.584313750267029);
#428=COLOUR_RGB('',0.584313750267029,0.584313750267029,0.584313750267029);
#429=COLOUR_RGB('',0.584313750267029,0.584313750267029,0.584313750267029);
#430=CARTESIAN_POINT('',(0.0377,-0.0209303607231222,0.264798989873223));
#431=AXIS2_PLACEMENT_3D('',#433,#434,#435);
#432=COLOUR_RGB('',0.584313750267029,0.584313750267029,0.584313750267029);
#433=CARTESIAN_POINT('',(0.0377,-0.0118793939239343,0.255748023074035));
#434=DIRECTION('',(0.0,0.707106781186547,0.707106781186548));
#435=DIRECTION('',(0.0,-0.707106781186548,0.707106781186547));
ENDSEC;
END-ISO-10303-21;
