ISO-10303-21;
HEADER;
/* Generated by software containing ST-Developer
 * from STEP Tools, Inc. (www.steptools.com) 
 */

FILE_DESCRIPTION(
/* description */ (''),
/* implementation_level */ '2;1');

FILE_NAME(
/* name */ 'SampleFuss.step',
/* time_stamp */ '2025-12-06T12:35:52+01:00',
/* author */ (''),
/* organization */ (''),
/* preprocessor_version */ 'ST-DEVELOPER v20.1',
/* originating_system */ 'Autodesk Translation Framework v14.21.0.0',
/* authorisation */ '');

FILE_SCHEMA (('AUTOMOTIVE_DESIGN { 1 0 10303 214 3 1 1 }'));
ENDSEC;

DATA;
#10=MECHANICAL_DESIGN_GEOMETRIC_PRESENTATION_REPRESENTATION('',(#13),#304);
#11=SHAPE_REPRESENTATION_RELATIONSHIP('SRR','None',#311,#12);
#12=ADVANCED_BREP_SHAPE_REPRESENTATION('',(#163),#303);
#13=STYLED_ITEM('',(#320),#163);
#14=FACE_BOUND('',#59,.T.);
#15=FACE_BOUND('',#62,.T.);
#16=CONICAL_SURFACE('',#182,13.6,0.785398163397439);
#17=CONICAL_SURFACE('',#188,13.6,0.785398163397442);
#18=CONICAL_SURFACE('',#192,5.52500000000002,0.785398163397451);
#19=ORIENTED_CLOSED_SHELL('',*,#161,.F.);
#20=LINE('',#264,#27);
#21=LINE('',#271,#28);
#22=LINE('',#275,#29);
#23=LINE('',#280,#30);
#24=LINE('',#289,#31);
#25=LINE('',#295,#32);
#26=LINE('',#298,#33);
#27=VECTOR('',#209,12.7);
#28=VECTOR('',#218,13.6);
#29=VECTOR('',#223,13.9);
#30=VECTOR('',#230,13.6);
#31=VECTOR('',#241,5.52500000000002);
#32=VECTOR('',#250,6.02500000000002);
#33=VECTOR('',#253,4.02500000000002);
#34=CYLINDRICAL_SURFACE('',#179,12.7);
#35=CYLINDRICAL_SURFACE('',#185,13.9);
#36=CYLINDRICAL_SURFACE('',#197,6.02500000000002);
#37=CYLINDRICAL_SURFACE('',#198,4.02500000000002);
#38=FACE_OUTER_BOUND('',#51,.T.);
#39=FACE_OUTER_BOUND('',#52,.T.);
#40=FACE_OUTER_BOUND('',#53,.T.);
#41=FACE_OUTER_BOUND('',#54,.T.);
#42=FACE_OUTER_BOUND('',#55,.T.);
#43=FACE_OUTER_BOUND('',#56,.T.);
#44=FACE_OUTER_BOUND('',#57,.T.);
#45=FACE_OUTER_BOUND('',#58,.T.);
#46=FACE_OUTER_BOUND('',#60,.T.);
#47=FACE_OUTER_BOUND('',#61,.T.);
#48=FACE_OUTER_BOUND('',#63,.T.);
#49=FACE_OUTER_BOUND('',#64,.T.);
#50=FACE_OUTER_BOUND('',#65,.T.);
#51=EDGE_LOOP('',(#106));
#52=EDGE_LOOP('',(#107,#108,#109,#110));
#53=EDGE_LOOP('',(#111));
#54=EDGE_LOOP('',(#112,#113,#114,#115));
#55=EDGE_LOOP('',(#116,#117,#118,#119));
#56=EDGE_LOOP('',(#120));
#57=EDGE_LOOP('',(#121,#122,#123,#124));
#58=EDGE_LOOP('',(#125));
#59=EDGE_LOOP('',(#126));
#60=EDGE_LOOP('',(#127,#128,#129,#130));
#61=EDGE_LOOP('',(#131));
#62=EDGE_LOOP('',(#132));
#63=EDGE_LOOP('',(#133,#134,#135,#136));
#64=EDGE_LOOP('',(#137,#138,#139,#140));
#65=EDGE_LOOP('',(#141));
#66=CIRCLE('',#178,12.7);
#67=CIRCLE('',#180,12.7);
#68=CIRCLE('',#183,13.3);
#69=CIRCLE('',#184,13.9);
#70=CIRCLE('',#186,13.9);
#71=CIRCLE('',#189,13.3);
#72=CIRCLE('',#191,6.02500000000002);
#73=CIRCLE('',#193,5.02500000000002);
#74=CIRCLE('',#194,6.02500000000002);
#75=CIRCLE('',#196,4.02500000000002);
#76=CIRCLE('',#199,4.02500000000002);
#77=VERTEX_POINT('',#260);
#78=VERTEX_POINT('',#263);
#79=VERTEX_POINT('',#268);
#80=VERTEX_POINT('',#270);
#81=VERTEX_POINT('',#274);
#82=VERTEX_POINT('',#279);
#83=VERTEX_POINT('',#283);
#84=VERTEX_POINT('',#286);
#85=VERTEX_POINT('',#288);
#86=VERTEX_POINT('',#292);
#87=VERTEX_POINT('',#297);
#88=EDGE_CURVE('',#77,#77,#66,.T.);
#89=EDGE_CURVE('',#77,#78,#20,.T.);
#90=EDGE_CURVE('',#78,#78,#67,.T.);
#91=EDGE_CURVE('',#79,#79,#68,.T.);
#92=EDGE_CURVE('',#79,#80,#21,.T.);
#93=EDGE_CURVE('',#80,#80,#69,.T.);
#94=EDGE_CURVE('',#80,#81,#22,.T.);
#95=EDGE_CURVE('',#81,#81,#70,.T.);
#96=EDGE_CURVE('',#81,#82,#23,.T.);
#97=EDGE_CURVE('',#82,#82,#71,.T.);
#98=EDGE_CURVE('',#83,#83,#72,.T.);
#99=EDGE_CURVE('',#84,#84,#73,.T.);
#100=EDGE_CURVE('',#84,#85,#24,.T.);
#101=EDGE_CURVE('',#85,#85,#74,.T.);
#102=EDGE_CURVE('',#86,#86,#75,.T.);
#103=EDGE_CURVE('',#85,#83,#25,.T.);
#104=EDGE_CURVE('',#86,#87,#26,.T.);
#105=EDGE_CURVE('',#87,#87,#76,.T.);
#106=ORIENTED_EDGE('',*,*,#88,.T.);
#107=ORIENTED_EDGE('',*,*,#88,.F.);
#108=ORIENTED_EDGE('',*,*,#89,.T.);
#109=ORIENTED_EDGE('',*,*,#90,.F.);
#110=ORIENTED_EDGE('',*,*,#89,.F.);
#111=ORIENTED_EDGE('',*,*,#90,.T.);
#112=ORIENTED_EDGE('',*,*,#91,.T.);
#113=ORIENTED_EDGE('',*,*,#92,.T.);
#114=ORIENTED_EDGE('',*,*,#93,.T.);
#115=ORIENTED_EDGE('',*,*,#92,.F.);
#116=ORIENTED_EDGE('',*,*,#93,.F.);
#117=ORIENTED_EDGE('',*,*,#94,.T.);
#118=ORIENTED_EDGE('',*,*,#95,.F.);
#119=ORIENTED_EDGE('',*,*,#94,.F.);
#120=ORIENTED_EDGE('',*,*,#91,.F.);
#121=ORIENTED_EDGE('',*,*,#95,.T.);
#122=ORIENTED_EDGE('',*,*,#96,.T.);
#123=ORIENTED_EDGE('',*,*,#97,.T.);
#124=ORIENTED_EDGE('',*,*,#96,.F.);
#125=ORIENTED_EDGE('',*,*,#97,.F.);
#126=ORIENTED_EDGE('',*,*,#98,.T.);
#127=ORIENTED_EDGE('',*,*,#99,.T.);
#128=ORIENTED_EDGE('',*,*,#100,.T.);
#129=ORIENTED_EDGE('',*,*,#101,.T.);
#130=ORIENTED_EDGE('',*,*,#100,.F.);
#131=ORIENTED_EDGE('',*,*,#99,.F.);
#132=ORIENTED_EDGE('',*,*,#102,.T.);
#133=ORIENTED_EDGE('',*,*,#101,.F.);
#134=ORIENTED_EDGE('',*,*,#103,.T.);
#135=ORIENTED_EDGE('',*,*,#98,.F.);
#136=ORIENTED_EDGE('',*,*,#103,.F.);
#137=ORIENTED_EDGE('',*,*,#102,.F.);
#138=ORIENTED_EDGE('',*,*,#104,.T.);
#139=ORIENTED_EDGE('',*,*,#105,.F.);
#140=ORIENTED_EDGE('',*,*,#104,.F.);
#141=ORIENTED_EDGE('',*,*,#105,.T.);
#142=PLANE('',#177);
#143=PLANE('',#181);
#144=PLANE('',#187);
#145=PLANE('',#190);
#146=PLANE('',#195);
#147=PLANE('',#200);
#148=ADVANCED_FACE('',(#38),#142,.F.);
#149=ADVANCED_FACE('',(#39),#34,.F.);
#150=ADVANCED_FACE('',(#40),#143,.T.);
#151=ADVANCED_FACE('',(#41),#16,.T.);
#152=ADVANCED_FACE('',(#42),#35,.T.);
#153=ADVANCED_FACE('',(#43),#144,.T.);
#154=ADVANCED_FACE('',(#44),#17,.T.);
#155=ADVANCED_FACE('',(#45,#14),#145,.F.);
#156=ADVANCED_FACE('',(#46),#18,.T.);
#157=ADVANCED_FACE('',(#47,#15),#146,.F.);
#158=ADVANCED_FACE('',(#48),#36,.T.);
#159=ADVANCED_FACE('',(#49),#37,.F.);
#160=ADVANCED_FACE('',(#50),#147,.F.);
#161=CLOSED_SHELL('',(#148,#149,#150));
#162=CLOSED_SHELL('',(#151,#152,#153,#154,#155,#156,#157,#158,#159,#160));
#163=BREP_WITH_VOIDS('K\X\F6rper1',#162,(#19));
#164=DERIVED_UNIT_ELEMENT(#166,1.);
#165=DERIVED_UNIT_ELEMENT(#306,-3.);
#166=(
MASS_UNIT()
NAMED_UNIT(*)
SI_UNIT(.KILO.,.GRAM.)
);
#167=DERIVED_UNIT((#164,#165));
#168=MEASURE_REPRESENTATION_ITEM('density measure',
POSITIVE_RATIO_MEASURE(100.),#167);
#169=PROPERTY_DEFINITION_REPRESENTATION(#174,#171);
#170=PROPERTY_DEFINITION_REPRESENTATION(#175,#172);
#171=REPRESENTATION('material name',(#173),#303);
#172=REPRESENTATION('density',(#168),#303);
#173=DESCRIPTIVE_REPRESENTATION_ITEM('Grobspanplatte','Grobspanplatte');
#174=PROPERTY_DEFINITION('material property','material name',#313);
#175=PROPERTY_DEFINITION('material property','density of part',#313);
#176=AXIS2_PLACEMENT_3D('',#258,#201,#202);
#177=AXIS2_PLACEMENT_3D('',#259,#203,#204);
#178=AXIS2_PLACEMENT_3D('',#261,#205,#206);
#179=AXIS2_PLACEMENT_3D('',#262,#207,#208);
#180=AXIS2_PLACEMENT_3D('',#265,#210,#211);
#181=AXIS2_PLACEMENT_3D('',#266,#212,#213);
#182=AXIS2_PLACEMENT_3D('',#267,#214,#215);
#183=AXIS2_PLACEMENT_3D('',#269,#216,#217);
#184=AXIS2_PLACEMENT_3D('',#272,#219,#220);
#185=AXIS2_PLACEMENT_3D('',#273,#221,#222);
#186=AXIS2_PLACEMENT_3D('',#276,#224,#225);
#187=AXIS2_PLACEMENT_3D('',#277,#226,#227);
#188=AXIS2_PLACEMENT_3D('',#278,#228,#229);
#189=AXIS2_PLACEMENT_3D('',#281,#231,#232);
#190=AXIS2_PLACEMENT_3D('',#282,#233,#234);
#191=AXIS2_PLACEMENT_3D('',#284,#235,#236);
#192=AXIS2_PLACEMENT_3D('',#285,#237,#238);
#193=AXIS2_PLACEMENT_3D('',#287,#239,#240);
#194=AXIS2_PLACEMENT_3D('',#290,#242,#243);
#195=AXIS2_PLACEMENT_3D('',#291,#244,#245);
#196=AXIS2_PLACEMENT_3D('',#293,#246,#247);
#197=AXIS2_PLACEMENT_3D('',#294,#248,#249);
#198=AXIS2_PLACEMENT_3D('',#296,#251,#252);
#199=AXIS2_PLACEMENT_3D('',#299,#254,#255);
#200=AXIS2_PLACEMENT_3D('',#300,#256,#257);
#201=DIRECTION('axis',(0.,0.,1.));
#202=DIRECTION('refdir',(1.,0.,0.));
#203=DIRECTION('center_axis',(0.,0.707106781186547,0.707106781186548));
#204=DIRECTION('ref_axis',(-1.,0.,0.));
#205=DIRECTION('center_axis',(0.,-0.707106781186547,-0.707106781186548));
#206=DIRECTION('ref_axis',(-1.,0.,0.));
#207=DIRECTION('center_axis',(0.,0.707106781186549,0.707106781186546));
#208=DIRECTION('ref_axis',(-1.,0.,0.));
#209=DIRECTION('',(0.,-0.707106781186549,-0.707106781186546));
#210=DIRECTION('center_axis',(0.,0.707106781186547,0.707106781186548));
#211=DIRECTION('ref_axis',(-1.,0.,0.));
#212=DIRECTION('center_axis',(0.,0.707106781186547,0.707106781186548));
#213=DIRECTION('ref_axis',(-1.,0.,0.));
#214=DIRECTION('center_axis',(0.,-0.707106781186546,-0.707106781186549));
#215=DIRECTION('ref_axis',(-1.,0.,0.));
#216=DIRECTION('center_axis',(0.,-0.707106781186547,-0.707106781186548));
#217=DIRECTION('ref_axis',(-1.,0.,0.));
#218=DIRECTION('',(0.707106781186541,-0.500000000000003,-0.500000000000006));
#219=DIRECTION('center_axis',(0.,0.707106781186547,0.707106781186548));
#220=DIRECTION('ref_axis',(-1.,0.,0.));
#221=DIRECTION('center_axis',(0.,0.707106781186548,0.707106781186548));
#222=DIRECTION('ref_axis',(-1.,0.,0.));
#223=DIRECTION('',(0.,-0.707106781186547,-0.707106781186547));
#224=DIRECTION('center_axis',(0.,-0.707106781186547,-0.707106781186548));
#225=DIRECTION('ref_axis',(-1.,0.,0.));
#226=DIRECTION('center_axis',(0.,0.707106781186547,0.707106781186548));
#227=DIRECTION('ref_axis',(-1.,0.,0.));
#228=DIRECTION('center_axis',(0.,0.707106781186548,0.707106781186548));
#229=DIRECTION('ref_axis',(-1.,0.,0.));
#230=DIRECTION('',(-0.707106781186543,-0.500000000000004,-0.500000000000003));
#231=DIRECTION('center_axis',(0.,0.707106781186547,0.707106781186548));
#232=DIRECTION('ref_axis',(-1.,0.,0.));
#233=DIRECTION('center_axis',(0.,0.707106781186547,0.707106781186548));
#234=DIRECTION('ref_axis',(-1.,0.,0.));
#235=DIRECTION('center_axis',(0.,0.707106781186547,0.707106781186548));
#236=DIRECTION('ref_axis',(-1.,0.,0.));
#237=DIRECTION('center_axis',(0.,0.707106781186546,0.707106781186549));
#238=DIRECTION('ref_axis',(-1.,0.,0.));
#239=DIRECTION('center_axis',(0.,0.707106781186547,0.707106781186548));
#240=DIRECTION('ref_axis',(-1.,0.,0.));
#241=DIRECTION('',(0.707106781186549,0.499999999999998,0.5));
#242=DIRECTION('center_axis',(0.,-0.707106781186547,-0.707106781186548));
#243=DIRECTION('ref_axis',(-1.,0.,0.));
#244=DIRECTION('center_axis',(0.,0.707106781186547,0.707106781186548));
#245=DIRECTION('ref_axis',(-1.,0.,0.));
#246=DIRECTION('center_axis',(0.,0.707106781186547,0.707106781186548));
#247=DIRECTION('ref_axis',(-1.,0.,0.));
#248=DIRECTION('center_axis',(0.,-0.707106781186544,-0.707106781186551));
#249=DIRECTION('ref_axis',(-1.,0.,0.));
#250=DIRECTION('',(0.,0.707106781186544,0.707106781186551));
#251=DIRECTION('center_axis',(0.,-0.707106781186544,-0.707106781186551));
#252=DIRECTION('ref_axis',(-1.,0.,0.));
#253=DIRECTION('',(0.,0.707106781186544,0.707106781186551));
#254=DIRECTION('center_axis',(0.,-0.707106781186547,-0.707106781186548));
#255=DIRECTION('ref_axis',(-1.,0.,0.));
#256=DIRECTION('center_axis',(0.,0.707106781186547,0.707106781186548));
#257=DIRECTION('ref_axis',(-1.,0.,0.));
#258=CARTESIAN_POINT('',(0.,0.,0.));
#259=CARTESIAN_POINT('Origin',(37.7,-11.879393923934,255.748023074035));
#260=CARTESIAN_POINT('',(50.4,-11.8793939239341,255.748023074035));
#261=CARTESIAN_POINT('Origin',(37.7,-11.8793939239341,255.748023074035));
#262=CARTESIAN_POINT('Origin',(37.7,-13.5764501987818,254.050966799188));
#263=CARTESIAN_POINT('',(50.4,-12.8693434175952,254.758073580374));
#264=CARTESIAN_POINT('',(50.4,-13.5764501987818,254.050966799188));
#265=CARTESIAN_POINT('Origin',(37.7,-12.8693434175952,254.758073580374));
#266=CARTESIAN_POINT('Origin',(37.7,-12.8693434175952,254.758073580374));
#267=CARTESIAN_POINT('Origin',(37.7,-11.5258405333408,256.101576464629));
#268=CARTESIAN_POINT('',(51.,-11.3137084989848,256.313708498985));
#269=CARTESIAN_POINT('Origin',(37.7,-11.3137084989848,256.313708498985));
#270=CARTESIAN_POINT('',(51.6,-11.7379725676967,255.889444430273));
#271=CARTESIAN_POINT('',(51.3,-11.5258405333408,256.101576464629));
#272=CARTESIAN_POINT('Origin',(37.7,-11.7379725676967,255.889444430273));
#273=CARTESIAN_POINT('Origin',(37.7,-13.5764501987818,254.050966799188));
#274=CARTESIAN_POINT('',(51.6,-13.1521861300698,254.4752308679));
#275=CARTESIAN_POINT('',(51.6,-13.5764501987818,254.050966799188));
#276=CARTESIAN_POINT('Origin',(37.7,-13.1521861300698,254.4752308679));
#277=CARTESIAN_POINT('Origin',(37.7,-11.3137084989848,256.313708498985));
#278=CARTESIAN_POINT('Origin',(37.7,-13.3643181644258,254.263098833544));
#279=CARTESIAN_POINT('',(51.,-13.5764501987818,254.050966799188));
#280=CARTESIAN_POINT('',(51.3,-13.3643181644258,254.263098833544));
#281=CARTESIAN_POINT('Origin',(37.7,-13.5764501987818,254.050966799188));
#282=CARTESIAN_POINT('Origin',(37.7,-13.5764501987818,254.050966799188));
#283=CARTESIAN_POINT('',(43.725,-13.5764501987817,254.050966799188));
#284=CARTESIAN_POINT('Origin',(37.7,-13.5764501987817,254.050966799188));
#285=CARTESIAN_POINT('Origin',(37.7,-16.6170093578838,251.010407640086));
#286=CARTESIAN_POINT('',(42.725,-16.970562748477,250.656854249492));
#287=CARTESIAN_POINT('Origin',(37.7,-16.970562748477,250.656854249492));
#288=CARTESIAN_POINT('',(43.725,-16.2634559672905,251.363961030679));
#289=CARTESIAN_POINT('',(43.225,-16.6170093578838,251.010407640086));
#290=CARTESIAN_POINT('Origin',(37.7,-16.2634559672905,251.363961030679));
#291=CARTESIAN_POINT('Origin',(37.7,-16.9705627484771,250.656854249492));
#292=CARTESIAN_POINT('',(41.725,-16.9705627484771,250.656854249492));
#293=CARTESIAN_POINT('Origin',(37.7,-16.9705627484771,250.656854249492));
#294=CARTESIAN_POINT('Origin',(37.7,-13.5764501987817,254.050966799188));
#295=CARTESIAN_POINT('',(43.725,-13.5764501987817,254.050966799188));
#296=CARTESIAN_POINT('Origin',(37.7,-13.5764501987817,254.050966799188));
#297=CARTESIAN_POINT('',(41.725,-13.5764501987817,254.050966799188));
#298=CARTESIAN_POINT('',(41.725,-13.5764501987817,254.050966799188));
#299=CARTESIAN_POINT('Origin',(37.7,-13.5764501987817,254.050966799188));
#300=CARTESIAN_POINT('Origin',(37.7,-13.5764501987818,254.050966799188));
#301=UNCERTAINTY_MEASURE_WITH_UNIT(LENGTH_MEASURE(0.01),#305,
'DISTANCE_ACCURACY_VALUE',
'Maximum model space distance between geometric entities at asserted c
onnectivities');
#302=UNCERTAINTY_MEASURE_WITH_UNIT(LENGTH_MEASURE(0.01),#305,
'DISTANCE_ACCURACY_VALUE',
'Maximum model space distance between geometric entities at asserted c
onnectivities');
#303=(
GEOMETRIC_REPRESENTATION_CONTEXT(3)
GLOBAL_UNCERTAINTY_ASSIGNED_CONTEXT((#301))
GLOBAL_UNIT_ASSIGNED_CONTEXT((#305,#307,#308))
REPRESENTATION_CONTEXT('','3D')
);
#304=(
GEOMETRIC_REPRESENTATION_CONTEXT(3)
GLOBAL_UNCERTAINTY_ASSIGNED_CONTEXT((#302))
GLOBAL_UNIT_ASSIGNED_CONTEXT((#305,#307,#308))
REPRESENTATION_CONTEXT('','3D')
);
#305=(
LENGTH_UNIT()
NAMED_UNIT(*)
SI_UNIT(.MILLI.,.METRE.)
);
#306=(
LENGTH_UNIT()
NAMED_UNIT(*)
SI_UNIT($,.METRE.)
);
#307=(
NAMED_UNIT(*)
PLANE_ANGLE_UNIT()
SI_UNIT($,.RADIAN.)
);
#308=(
NAMED_UNIT(*)
SI_UNIT($,.STERADIAN.)
SOLID_ANGLE_UNIT()
);
#309=SHAPE_DEFINITION_REPRESENTATION(#310,#311);
#310=PRODUCT_DEFINITION_SHAPE('',$,#313);
#311=SHAPE_REPRESENTATION('',(#176),#303);
#312=PRODUCT_DEFINITION_CONTEXT('part definition',#317,'design');
#313=PRODUCT_DEFINITION('SampleFuss','SampleFuss',#314,#312);
#314=PRODUCT_DEFINITION_FORMATION('',$,#319);
#315=PRODUCT_RELATED_PRODUCT_CATEGORY('SampleFuss','SampleFuss',(#319));
#316=APPLICATION_PROTOCOL_DEFINITION('international standard',
'automotive_design',2009,#317);
#317=APPLICATION_CONTEXT(
'Core Data for Automotive Mechanical Design Process');
#318=PRODUCT_CONTEXT('part definition',#317,'mechanical');
#319=PRODUCT('SampleFuss','SampleFuss',$,(#318));
#320=PRESENTATION_STYLE_ASSIGNMENT((#321));
#321=SURFACE_STYLE_USAGE(.BOTH.,#322);
#322=SURFACE_SIDE_STYLE('',(#323));
#323=SURFACE_STYLE_FILL_AREA(#324);
#324=FILL_AREA_STYLE('Oberfl\X\E4che - matt',(#325));
#325=FILL_AREA_STYLE_COLOUR('Oberfl\X\E4che - matt',#326);
#326=COLOUR_RGB('Oberfl\X\E4che - matt',0.701960784313725,0.701960784313725,
0.701960784313725);
ENDSEC;
END-ISO-10303-21;
